<svg width="30" height="30" viewBox="0 0 30 30" fill="none" xmlns="http://www.w3.org/2000/svg">
<g id="language_24dp_E8EAED_FILL0_wght400_GRAD0_opsz24 2">
<path id="Vector" d="M15 27.5C13.2917 27.5 11.6771 27.1719 10.1562 26.5156C8.63542 25.8594 7.30729 24.9635 6.17188 23.8281C5.03646 22.6927 4.14062 21.3646 3.48438 19.8438C2.82812 18.3229 2.5 16.7083 2.5 15C2.5 13.2708 2.82812 11.651 3.48438 10.1406C4.14062 8.63021 5.03646 7.30729 6.17188 6.17188C7.30729 5.03646 8.63542 4.14062 10.1562 3.48438C11.6771 2.82812 13.2917 2.5 15 2.5C16.7292 2.5 18.349 2.82812 19.8594 3.48438C21.3698 4.14062 22.6927 5.03646 23.8281 6.17188C24.9635 7.30729 25.8594 8.63021 26.5156 10.1406C27.1719 11.651 27.5 13.2708 27.5 15C27.5 16.7083 27.1719 18.3229 26.5156 19.8438C25.8594 21.3646 24.9635 22.6927 23.8281 23.8281C22.6927 24.9635 21.3698 25.8594 19.8594 26.5156C18.349 27.1719 16.7292 27.5 15 27.5ZM15 24.9375C15.5417 24.1875 16.0104 23.4062 16.4062 22.5938C16.8021 21.7812 17.125 20.9167 17.375 20H12.625C12.875 20.9167 13.1979 21.7812 13.5938 22.5938C13.9896 23.4062 14.4583 24.1875 15 24.9375ZM11.75 24.4375C11.375 23.75 11.0469 23.0365 10.7656 22.2969C10.4844 21.5573 10.25 20.7917 10.0625 20H6.375C6.97917 21.0417 7.73438 21.9479 8.64062 22.7188C9.54688 23.4896 10.5833 24.0625 11.75 24.4375ZM18.25 24.4375C19.4167 24.0625 20.4531 23.4896 21.3594 22.7188C22.2656 21.9479 23.0208 21.0417 23.625 20H19.9375C19.75 20.7917 19.5156 21.5573 19.2344 22.2969C18.9531 23.0365 18.625 23.75 18.25 24.4375ZM5.3125 17.5H9.5625C9.5 17.0833 9.45312 16.6719 9.42188 16.2656C9.39062 15.8594 9.375 15.4375 9.375 15C9.375 14.5625 9.39062 14.1406 9.42188 13.7344C9.45312 13.3281 9.5 12.9167 9.5625 12.5H5.3125C5.20833 12.9167 5.13021 13.3281 5.07812 13.7344C5.02604 14.1406 5 14.5625 5 15C5 15.4375 5.02604 15.8594 5.07812 16.2656C5.13021 16.6719 5.20833 17.0833 5.3125 17.5ZM12.0625 17.5H17.9375C18 17.0833 18.0469 16.6719 18.0781 16.2656C18.1094 15.8594 18.125 15.4375 18.125 15C18.125 14.5625 18.1094 14.1406 18.0781 13.7344C18.0469 13.3281 18 12.9167 17.9375 12.5H12.0625C12 12.9167 11.9531 13.3281 11.9219 13.7344C11.8906 14.1406 11.875 14.5625 11.875 15C11.875 15.4375 11.8906 15.8594 11.9219 16.2656C11.9531 16.6719 12 17.0833 12.0625 17.5ZM20.4375 17.5H24.6875C24.7917 17.0833 24.8698 16.6719 24.9219 16.2656C24.974 15.8594 25 15.4375 25 15C25 14.5625 24.974 14.1406 24.9219 13.7344C24.8698 13.3281 24.7917 12.9167 24.6875 12.5H20.4375C20.5 12.9167 20.5469 13.3281 20.5781 13.7344C20.6094 14.1406 20.625 14.5625 20.625 15C20.625 15.4375 20.6094 15.8594 20.5781 16.2656C20.5469 16.6719 20.5 17.0833 20.4375 17.5ZM19.9375 10H23.625C23.0208 8.95833 22.2656 8.05208 21.3594 7.28125C20.4531 6.51042 19.4167 5.9375 18.25 5.5625C18.625 6.25 18.9531 6.96354 19.2344 7.70312C19.5156 8.44271 19.75 9.20833 19.9375 10ZM12.625 10H17.375C17.125 9.08333 16.8021 8.21875 16.4062 7.40625C16.0104 6.59375 15.5417 5.8125 15 5.0625C14.4583 5.8125 13.9896 6.59375 13.5938 7.40625C13.1979 8.21875 12.875 9.08333 12.625 10ZM6.375 10H10.0625C10.25 9.20833 10.4844 8.44271 10.7656 7.70312C11.0469 6.96354 11.375 6.25 11.75 5.5625C10.5833 5.9375 9.54688 6.51042 8.64062 7.28125C7.73438 8.05208 6.97917 8.95833 6.375 10Z" fill="#FDFDFD"/>
</g>
</svg>
